<svg width="44" height="46" viewBox="0 0 44 46" fill="none" xmlns="http://www.w3.org/2000/svg">
<path d="M28 23.783C32.4183 23.783 36 20.2012 36 15.783C36 11.3647 32.4183 7.78296 28 7.78296C23.5817 7.78296 20 11.3647 20 15.783C20 20.2012 23.5817 23.783 28 23.783Z" fill="url(#paint0_linear_2_14)"/>
<path d="M26.96 1.24294L27.48 4.19695C27.828 6.16695 24.872 6.68695 24.526 4.71695L24.006 1.76294C23.658 -0.207055 26.614 -0.727055 26.96 1.24294ZM37.546 4.76495L35.826 7.22295C34.678 8.86095 32.222 7.14095 33.368 5.50294L35.088 3.04495C36.236 1.40694 38.692 3.12695 37.546 4.76495ZM16.984 6.23695L19.442 7.95695C21.08 9.10495 19.36 11.5609 17.722 10.4149L15.264 8.69495C13.626 7.54695 15.346 5.09095 16.984 6.23695ZM38.282 21.1489L40.74 22.8689C42.378 24.0169 40.658 26.4729 39.02 25.327L36.562 23.6069C34.924 22.4589 36.644 20.0029 38.282 21.1489ZM42.542 14.7409L39.588 15.2609C37.618 15.6089 37.098 12.6529 39.068 12.3069L42.022 11.7869C43.992 11.4389 44.512 14.3949 42.542 14.7409Z" fill="#FFB300"/>
<path d="M10.218 38.7089L8.11798 43.7069C7.79798 44.4709 8.15598 45.3509 8.91998 45.6709C9.68398 45.9909 10.564 45.6329 10.884 44.8689L12.984 39.8709C13.304 39.1069 12.946 38.2269 12.182 37.9069C11.418 37.5869 10.538 37.9449 10.218 38.7089ZM20.218 36.7089L18.118 41.7069C17.798 42.4709 18.156 43.3509 18.92 43.6709C19.684 43.9909 20.564 43.6329 20.884 42.8689L22.984 37.8709C23.304 37.1069 22.946 36.2269 22.182 35.9069C21.418 35.5869 20.538 35.9449 20.218 36.7089Z" fill="#66AFEB"/>
<path d="M8 33.783C3.582 33.783 0 30.201 0 25.783C0 21.365 3.582 17.783 8 17.783C8.834 17.783 9.636 17.911 10.392 18.147C11.518 14.463 14.946 11.783 19 11.783C23.97 11.783 28 15.813 28 20.783C28 21.253 27.964 21.713 27.894 22.163C28.55 21.917 29.258 21.783 30 21.783C33.314 21.783 36 24.469 36 27.783C36 31.097 33.314 33.783 30 33.783H8Z" fill="url(#paint1_linear_2_14)"/>
<path d="M10 20.783C10 25.753 14.03 29.783 19 29.783C23.502 29.783 27.23 26.479 27.894 22.163C28.55 21.917 29.258 21.783 30 21.783C33.314 21.783 36 24.469 36 27.783C36 31.097 33.314 33.783 30 33.783H8C3.582 33.783 0 30.201 0 25.783C0 21.365 3.582 17.783 8 17.783C8.834 17.783 9.636 17.911 10.392 18.147C10.136 18.981 10 19.865 10 20.783Z" fill="url(#paint2_radial_2_14)"/>
<defs>
<linearGradient id="paint0_linear_2_14" x1="36" y1="7.78296" x2="24.7832" y2="18.8553" gradientUnits="userSpaceOnUse">
<stop stop-color="#FFB301"/>
<stop offset="1" stop-color="#FFC533"/>
</linearGradient>
<linearGradient id="paint1_linear_2_14" x1="18" y1="11.783" x2="18" y2="33.783" gradientUnits="userSpaceOnUse">
<stop stop-color="#9FC7FF"/>
<stop offset="1" stop-color="#9BC1F5"/>
</linearGradient>
<radialGradient id="paint2_radial_2_14" cx="0" cy="0" r="1" gradientUnits="userSpaceOnUse" gradientTransform="translate(11.0679 -22.9136) rotate(-90) scale(20.9574 6.69705)">
<stop stop-color="#486DA8" stop-opacity="0.4"/>
<stop offset="1" stop-color="#486DA8" stop-opacity="0"/>
</radialGradient>
</defs>
</svg>
